<svg xmlns="http://www.w3.org/2000/svg" viewBox="0 0 64 64"><title>email-box-arrow-down</title><g id="email-box-arrow-down"><rect x="2" y="12" width="60" height="37" fill="#5ce7ff"/><polygon points="44 52 20 52 17 48 47 48 44 52" fill="#00c9e0"/><polygon points="38 24 32 29 26 24 26 1 38 1 38 24" fill="#ffcb47"/><polygon points="45 49 62 49 62 62 2 62 2 49 18 49 20 52 44 52 45 49" fill="#ff504d"/><rect x="2" y="59" width="60" height="3" fill="#de3d3a"/><polyline points="62 49 62 12 39 12" fill="none" stroke="#3e3948" stroke-miterlimit="10" stroke-width="2"/><polyline points="25 12 2 12 2 49" fill="none" stroke="#3e3948" stroke-miterlimit="10" stroke-width="2"/><line x1="2" y1="49" x2="25" y2="29" fill="none" stroke="#3e3948" stroke-miterlimit="10" stroke-width="2"/><line x1="62" y1="49" x2="39" y2="29" fill="none" stroke="#3e3948" stroke-miterlimit="10" stroke-width="2"/><polyline points="2 12 32 35 51 20" fill="none" stroke="#3e3948" stroke-miterlimit="10" stroke-width="2"/><line x1="54.17" y1="18" x2="62" y2="12" fill="none" stroke="#3e3948" stroke-miterlimit="10" stroke-width="2"/><line x1="26" y1="24" x2="26" y2="1" fill="none" stroke="#3e3948" stroke-miterlimit="10" stroke-width="2"/><line x1="38" y1="1" x2="38" y2="24" fill="none" stroke="#3e3948" stroke-miterlimit="10" stroke-width="2"/><polyline points="43 20 32 29 21 20" fill="none" stroke="#3e3948" stroke-miterlimit="10" stroke-width="2"/><line x1="32" y1="24" x2="32" y2="20" fill="none" stroke="#3e3948" stroke-miterlimit="10" stroke-width="2"/><line x1="32" y1="18" x2="32" y2="5" fill="none" stroke="#3e3948" stroke-miterlimit="10" stroke-width="2"/><line x1="32" y1="3" x2="32" y2="1" fill="none" stroke="#3e3948" stroke-miterlimit="10" stroke-width="2"/><polygon points="45 49 62 49 62 62 2 62 2 49 18 49 20 52 44 52 45 49" fill="none" stroke="#3e3948" stroke-linejoin="round" stroke-width="2"/><line x1="24" y1="56" x2="40" y2="56" fill="none" stroke="#3e3948" stroke-miterlimit="10" stroke-width="2"/><line x1="42" y1="56" x2="44" y2="56" fill="none" stroke="#3e3948" stroke-miterlimit="10" stroke-width="2"/><line x1="20" y1="56" x2="22" y2="56" fill="none" stroke="#3e3948" stroke-miterlimit="10" stroke-width="2"/><line x1="3" y1="53" x2="9" y2="53" fill="none" stroke="#3e3948" stroke-linejoin="round" stroke-width="2"/><line x1="3" y1="58" x2="9" y2="58" fill="none" stroke="#3e3948" stroke-linejoin="round" stroke-width="2"/><line x1="55" y1="53" x2="61" y2="53" fill="none" stroke="#3e3948" stroke-linejoin="round" stroke-width="2"/><line x1="55" y1="58" x2="61" y2="58" fill="none" stroke="#3e3948" stroke-linejoin="round" stroke-width="2"/></g></svg>